# xmcd
#
# Track frame offsets:
#	150
#	8118
#	17529
#	30343
#	55305
#	63542
#	76668
#	90766
#	97821
#	109384
#	120465
#	134071
#	147001
#	159874
#	172974
#	186757
#	200532
#	215617
#	227752
#	241177
#
# Disc length: 3387 seconds
#
# Revision: 1
# Processed by: cddbd v1.5.1PL2 Copyright (c) Steve Scherf et al.
# Submitted via: EasyCDDAExtractor 6.2.0.3
#
DISCID=f50d3914
DTITLE=Various Artist - 10 Blues Legends CD 1
DYEAR=1900
DGENRE=
TTITLE0=Leadbely - Irene
TTITLE1=Leadbely - Midnight Special
TTITLE2=Leadbely - Good Morning Blues
TTITLE3=Leadbely - Bourgedis Blues
TTITLE4=Leadbely - On Monday
TTITLE5=Leadbely - See See Rider
TTITLE6=Leadbely - Alberta
TTITLE7=Leadbely - Take This Hammer
TTITLE8=Leadbely - Little Sally Walker
TTITLE9=Leadbely - I Got A Pretty Flower 
TTITLE10=Blind Lemon Jefferson - Match Box Blues
TTITLE11=Blind Lemon Jefferson - Black Snake Moan
TTITLE12=Blind Lemon Jefferson - Bad Luck Blues
TTITLE13=Blind Lemon Jefferson - Easy Rider Blues
TTITLE14=Blind Lemon Jefferson - Southern Woman Blues
TTITLE15=Blind Lemon Jefferson - Shuckin' Sugar Blues
TTITLE16=Blind Lemon Jefferson - Long Distance Moan
TTITLE17=Blind Lemon Jefferson - That Crawling Baby Blues
TTITLE18=Blind Lemon Jefferson - Broke And Hungry
TTITLE19=Blind Lemon Jefferson - Rabbit Foot Blues
EXTD=
EXTT0=
EXTT1=
EXTT2=
EXTT3=
EXTT4=
EXTT5=
EXTT6=
EXTT7=
EXTT8=
EXTT9=
EXTT10=
EXTT11=
EXTT12=
EXTT13=
EXTT14=
EXTT15=
EXTT16=
EXTT17=
EXTT18=
EXTT19=
PLAYORDER=
